# xmcd
#
# Track frame offsets:
#  150
#  11148
#  31079
#  46866
#  59259
#  71160
#  84771
#  97955
#  108407
#  121237
#  132997
#  145669
#  161786
#  173274
#  185565
#  195762
#  211866
#  222743
#
# Disc length: 3122 seconds
#
# Revision: 0
# Processed by: cddbd v1.4PL0 Copyright (c) Steve Scherf et al.
# Submitted via: AltoMP3_Maker 3.0
#
DISCID=ef0c3012
DTITLE=Verschillende artiesten - De Beste Hollandse Trucksongs
DYEAR=1900
DGENRE=
TTITLE0=Als chauffeur ben ik geboren
TTITLE1=Stille Willie
TTITLE2=Lady Trucker is mijn naam
TTITLE3=Ouwe trouwe diesel
TTITLE4=Truckers Ole
TTITLE5=Nachtrijders
TTITLE6=Daar op de snelweg
TTITLE7=De schrik van alle wegen
TTITLE8=Container Song
TTITLE9=Mannen van de weg
TTITLE10=Bak roest op wielen
TTITLE11=Halverwege Amsterdam en Bremerhaven
TTITLE12=Johnny van de snelweg
TTITLE13=Gooi de tank maar vol
TTITLE14=Met 30 tonnen vracht
TTITLE15=Met de vlam in de pijp
TTITLE16=Kilometervreters
TTITLE17=Ik heb mijn wagen volgeladen
EXTD=
EXTT0=
EXTT1=
EXTT2=
EXTT3=
EXTT4=
EXTT5=
EXTT6=
EXTT7=
EXTT8=
EXTT9=
EXTT10=
EXTT11=
EXTT12=
EXTT13=
EXTT14=
EXTT15=
EXTT16=
EXTT17=
PLAYORDER=
